<svg data-v-0dd9719b="" version="1.0" xmlns="http://www.w3.org/2000/svg" xmlns:xlink="http://www.w3.org/1999/xlink" width="100%" height="100%" viewBox="0 0 340.000000 250.000000" preserveAspectRatio="xMidYMid meet" color-interpolation-filters="sRGB" style="margin: auto;"> <rect data-v-0dd9719b="" x="0" y="0" width="100%" height="100%" fill="#fff" fill-opacity="1" class="background"></rect> <rect data-v-0dd9719b="" x="0" y="0" width="100%" height="100%" fill="url(#watermark)" fill-opacity="1" class="watermarklayer"></rect> <g data-v-0dd9719b="" fill="#00a5a9" class="icon-text-wrapper icon-svg-group iconsvg" transform="translate(56.785003662109375,96.98356437683105)"><g class="iconsvg-imagesvg" transform="translate(0,0)"><g><rect fill="#00a5a9" fill-opacity="0" stroke-width="2" x="0" y="0" width="60" height="56.032872618602916" class="image-rect"></rect> <svg x="0" y="0" width="60" height="56.032872618602916" filtersec="colorsb7877341705" class="image-svg-svg primary" style="overflow: visible;"><svg xmlns="http://www.w3.org/2000/svg" viewBox="13.677627563476562 89.5285873413086 1476.3446044921875 1378.7261962890625"><g fill-rule="evenodd" clip-rule="evenodd"><path fill="#F08D00" d="M358.406 181.943C550.705 70.924 774.3 63.149 965.028 141.368l-57.756 33.342c-167.65-56.601-357.884-43.599-523.129 51.804-305.012 176.1-409.561 566.267-233.459 871.279 176.096 305.007 566.264 409.55 871.276 233.453 185.105-106.868 296.369-292.59 315.869-490.267l53.858-31.089c-10.432 226.913-132.717 443.941-343.995 565.929-329.625 190.309-751.274 77.33-941.577-252.3-190.313-329.618-77.328-751.268 252.291-941.576zm699.421 5.909l-51.649 29.82a637.01 637.01 0 0 1 84.719 54.722l47.961-27.691a686.894 686.894 0 0 0-81.031-56.851zm147.339 118.633l-45.885 26.491c21.022 21.533 40.692 44.789 58.827 69.669l44.813-25.873a687.636 687.636 0 0 0-57.755-70.287zm103.789 143.775l-44.605 25.751a639.248 639.248 0 0 1 37.178 82.169l45.185-26.085a690.8 690.8 0 0 0-37.758-81.835zm64.195 166.634l-46.629 26.921a633.982 633.982 0 0 1 13.22 95.999l49.409-28.525a685.037 685.037 0 0 0-16-94.395z"></path><path fill="#00A5A9" d="M413.555 277.454c69.461-40.106 143.791-64.161 218.694-73.335-29.125 38.673-53.036 80.618-71.49 124.693L169.17 554.897c47.212-112.791 130.338-211.603 244.385-277.443zm630.931-181.966L540.023 386.74 230.588 565.392l-82.155 47.433c-16.611 55.521-24.915 113.473-24.395 171.828l391.585-226.088a581.895 581.895 0 0 1 2.5-59.114L1153.08 132.86a582.853 582.853 0 0 0-108.594-37.372zm198.664 89.001L517.768 603.288 318.795 718.167 126.178 829.375a574.869 574.869 0 0 0 30.16 140.325l391.59-226.085a575.151 575.151 0 0 1-14.774-49.142l781.316-451.095a576.018 576.018 0 0 0-71.32-58.889zm131.619 127.706L562.554 781.127l-155.556 89.811-236.034 136.274a581.113 581.113 0 0 0 30.659 61.169c11.552 20.015 24.156 39.053 37.64 57.135l391.596-226.085a589.923 589.923 0 0 1-28.212-41.383l818.67-472.66c-2.883-5.38-1.587-3.39-8.903-16.059-7.316-12.669-24.156-39.047-37.645-57.134zm82.93 155.819l-801.665 462.84-160.828 92.858-230.763 133.228a574.66 574.66 0 0 0 106.449 96.282l391.59-226.085a576.151 576.151 0 0 1-42.758-32.99l760.946-439.333a574.74 574.74 0 0 0-22.971-86.8zm32.3 185.047a580.476 580.476 0 0 1-8.638 105.055l-585.923 338.286a584.178 584.178 0 0 0 65.703 19.738l-391.59 226.085c-56.381-13.378-110.733-35.155-160.998-64.789l174.854-100.954 216.736-125.131 689.856-398.29zm-324.587 474.515c-45.396 60.283-103.396 112.623-172.863 152.732-114.035 65.835-241.178 88.43-362.46 72.923l391.591-226.085c47.397 6.062 95.681 6.323 143.732.43z"></path></g></svg></svg> <!----></g></g> <g transform="translate(67,0.22518539428710938)"><g data-gra="path-name" fill-rule="" class="tp-name iconsvg-namesvg" transform="translate(0,0)"><g transform="scale(1)"><g><path d="M37.93-33.7L37.93-23.4 32.89-20.93 39.96-18.18 37.84-12.42 37.84 3.55 14.54 3.55 14.54-13.05 12.24-17.95 17.5-20.38 14.13-21.69 16.29-27.4 25.2-23.94 31.41-26.82 31.41-27.72 13.54-27.72 13.54-36 20.07-36 20.07-33.7 37.93-33.7ZM11.03-35.95L11.03-27.4 4.5-27.4 4.5-35.95 11.03-35.95ZM11.03-25.88L11.03-17.32 4.5-17.32 4.5-25.88 11.03-25.88ZM35.55-13.32L25.38-17.28 17.23-13.32 35.55-13.32ZM11.03-15.66L11.03 3.69 4.5 3.69 4.5-15.66 11.03-15.66ZM21.06-7.25L21.06-2.56 31.32-2.56 31.32-7.25 21.06-7.25ZM51.12 3.55L44.86 3.55 44.86-35.28 60.03-35.28 58.05-21.15 59.35-21.15 59.35 0.58 53.64 0.58 53.64-15.88 51.75-15.88 53.59-29.2 51.12-29.2 51.12 3.55ZM80.86 3.15L61.2 3.15 61.2-34.88 80.86-34.88 80.86 3.15ZM67.5-28.8L67.5-2.92 74.56-2.92 74.56-28.8 67.5-28.8ZM73.44-12.87L68.85-12.87 68.85-18.95 73.44-18.95 73.44-12.87ZM89.14-17.37L89.14-35.37 119.92-35.37 119.92-17.37 89.14-17.37ZM95.58-30.2L95.58-22.5 113.4-22.5 113.4-30.2 95.58-30.2ZM96.93-24.25L96.93-28.44 112.05-28.44 112.05-24.25 96.93-24.25ZM87.84-16.47L94.36-16.47 94.36-14.89 120.82-14.89 120.82 3.51 114.3 3.51 114.3-8.82 113.53-8.82 105.3 4.63 99.81 1.71 106.24-8.82 102.42-8.82 93.55 4.27 88.33 0.99 94.95-8.82 87.84-8.82 87.84-16.47ZM157-25.38L157-27.68 135.04-27.68 135.04-25.38 128.52-25.38 128.52-33.52 142.65-33.52 142.65-36 149.17-36 149.17-33.52 163.53-33.52 163.53-25.38 157-25.38ZM161.5-15.88L156.51-14.71 163.93-13 162.81-8.05 161.46-8.37 161.46 3.55 130.54 3.55 130.54-8.59 129.01-8.23 127.8-13.59 138.15-15.88 138.82-18.77 144.85-17.37 154.98-19.62 154.98-19.66 136.93-19.66 136.93-16.47 130.41-16.47 130.41-24.61 161.5-24.61 161.5-15.88ZM157.63-9.22L145.17-12.01 133.2-9.22 157.63-9.22ZM137.07-3.96L137.07-1.67 154.93-1.67 154.93-3.96 137.07-3.96Z" transform="translate(-4.5, 36)"></path></g> <!----> <!----> <!----> <!----> <!----> <!----> <!----></g></g> <g data-gra="path-slogan" fill-rule="" class="tp-slogan iconsvg-slogansvg" fill="#00a5a9" transform="translate(35.93499755859375,46.630001068115234)"><!----> <!----> <g transform="scale(1, 1)"><g transform="scale(1)"><path d="M0.89-8.58L2.06-8.58L2.06-1.03L6.42-1.03L6.42 0L0.89 0L0.89-8.58ZM13.22-3.19L13.22-8.58L14.39-8.58L14.39-3.05Q14.25 0.05 10.88 0.14L10.88 0.14Q7.73 0.05 7.59-2.86L7.59-2.86L7.59-8.58L8.77-8.58L8.77-3.19Q8.81-0.84 10.92-0.80L10.92-0.80Q13.22-0.84 13.22-3.19L13.22-3.19ZM22.97-4.27L22.97-4.27Q22.78-7.64 19.97-7.83L19.97-7.83Q17.11-7.69 16.97-4.27L16.97-4.27Q17.11-0.94 19.97-0.80L19.97-0.80Q22.78-0.98 22.97-4.27ZM24.14-4.27L24.14-4.27Q23.86 0 19.97 0.14L19.97 0.14Q16.03 0 15.75-4.27L15.75-4.27Q15.98-8.72 19.97-8.81L19.97-8.81Q23.86-8.67 24.14-4.27ZM32.44-8.58L29.20-3.47L29.20 0L28.03 0L28.03-3.47L24.80-8.58L26.16-8.58L28.59-4.45L31.08-8.58L32.44-8.58ZM39.14 0L38.30-2.48L34.83-2.48L33.94 0L32.77 0L36-8.58L37.31-8.58L40.41 0L39.14 0ZM36.56-7.31L35.20-3.52L37.88-3.52L36.61-7.31L36.56-7.31ZM42.84-8.58L47.16-1.64L47.16-8.58L48.28-8.58L48.28 0L46.97 0L42.61-6.94L42.56-6.94L42.56 0L41.44 0L41.44-8.58L42.84-8.58ZM56.48-3.61L53.86-3.61L53.86-4.59L57.61-4.59L57.61 0L56.86 0L56.58-1.08Q55.59 0.09 53.77 0.14L53.77 0.14Q52.03 0.14 51.09-0.75L51.09-0.75Q49.69-2.06 49.73-4.36L49.73-4.36Q50.06-8.63 53.81-8.81L53.81-8.81Q57-8.63 57.47-6L57.47-6L56.34-6Q55.88-7.78 53.77-7.83L53.77-7.83Q51.09-7.64 50.95-4.31L50.95-4.31Q50.95-0.75 53.81-0.75L53.81-0.75Q54.84-0.75 55.59-1.31L55.59-1.31Q56.53-2.06 56.48-3.61L56.48-3.61ZM69.66-8.58L66.42-3.47L66.42 0L65.25 0L65.25-3.47L62.02-8.58L63.38-8.58L65.81-4.45L68.30-8.58L69.66-8.58ZM70.88-8.58L72.05-8.58L72.05 0L70.88 0L70.88-8.58ZM76.55-4.31L75.19-3.05L75.19 0L74.02 0L74.02-8.58L75.19-8.58L75.19-4.41L79.36-8.58L81-8.58L77.39-5.11L81.09 0L79.55 0L76.55-4.31ZM83.30-1.03L88.45-1.03L88.45 0L82.13 0L82.13-8.58L88.36-8.58L88.36-7.59L83.30-7.59L83.30-4.92L87.98-4.92L87.98-3.89L83.30-3.89L83.30-1.03Z" transform="translate(-0.890625, 8.8125)"></path></g></g></g></g></g><defs v-gra="od"></defs></svg>